<svg width="375" height="752" viewBox="0 0 375 752" fill="none" xmlns="http://www.w3.org/2000/svg">
<g style="mix-blend-mode:luminosity">
<path d="M1.50036 398.001C1.50036 398.001 -58.8496 371.69 -85.2159 288.118C-108.61 213.968 -76.409 189.827 -35.6458 190.071C-18.2841 190.175 0.456749 157.666 -26.41 85.1385C-63.0491 -13.7694 82.2885 -71.2948 166.06 54.7228C206.6 115.706 245.793 81.9201 276.51 152.24L48.9029 380.095C47.9696 381.03 46.946 381.869 45.8471 382.602L34.5833 390.111C29.2752 393.65 23.1801 395.832 16.8322 396.467L1.50036 398.001Z" fill="#FCECDB"/>
</g>
<g style="mix-blend-mode:luminosity">
<path d="M25.0203 751.846C25.0203 751.846 -25.1073 678.739 16.5429 599.59C53.4979 529.363 96.5836 534.164 128.195 562.662C141.658 574.8 180.475 564.158 213.514 492.7C258.569 395.251 414.747 454.354 386.271 604.282C372.49 676.837 428.21 679.474 399.818 752L25.0203 751.846Z" fill="#FCECDB"/>
</g>
<path d="M246.767 551.735L246.251 561.741L245.328 579.5L243.908 606.564L238.853 703.218L237.912 721.267L236.381 750.914H130.121L127.003 703.218L120.657 606.564L118.756 577.785L117.889 564.595L117.612 560.315L117.059 551.735H246.767Z" fill="#ED7D2B"/>
<path d="M238.24 721.267L236.709 750.915H130.448L127.33 703.218L120.984 606.564L117.94 560.314L163.452 566.786C163.452 566.786 155.667 706.216 238.24 721.267Z" fill="#E07225"/>
<path d="M243.902 606.562L238.862 703.21H126.997L122.962 641.686L120.66 606.562H243.902Z" fill="#FF9843"/>
<path d="M202.187 703.21H127.004L122.962 641.686L120.66 606.562H164.455C167.557 637.527 176.631 679.159 202.187 703.21Z" fill="#EB8233"/>
<path d="M204.986 678.828C217.113 665.237 217.113 643.202 204.986 629.612C192.86 616.021 173.198 616.021 161.071 629.612C148.944 643.202 148.944 665.237 161.071 678.828C173.198 692.418 192.86 692.418 204.986 678.828Z" fill="#FCECDB"/>
<path d="M173.775 654.565C180.058 660.039 182.19 668.743 178.537 674.01C178.332 674.306 178.11 674.587 177.873 674.852C173.977 679.237 166.474 678.796 160.548 673.633C154.265 668.159 152.133 659.451 155.784 654.187C159.436 648.922 167.492 649.091 173.775 654.565Z" fill="#D39E7A"/>
<path d="M177.873 674.852C173.977 679.237 166.783 678.352 160.856 673.188C154.573 667.714 152.327 659.816 155.979 654.551C155.979 654.551 161.48 663.54 167.047 663.633C172.356 663.72 177.39 674.006 177.873 674.852Z" fill="#E5B593"/>
<path d="M177.873 674.853C173.977 679.238 166.474 678.797 160.548 673.634C154.265 668.16 152.133 659.452 155.784 654.187C155.784 654.187 161.149 664.649 166.716 664.742C172.024 664.829 177.39 674.007 177.873 674.853Z" fill="#543419"/>
<path d="M205.483 668.049C204.999 676.952 199.792 683.838 193.852 683.433C193.518 683.411 193.185 683.365 192.856 683.295C187.427 682.167 183.516 674.979 183.972 666.581C184.456 657.679 189.665 650.79 195.604 651.196C201.545 651.601 205.967 659.147 205.483 668.049Z" fill="#D39E7A"/>
<path d="M192.857 683.296C187.427 682.168 184.018 675.014 184.474 666.616C184.958 657.714 189.507 651.177 195.446 651.582C195.446 651.582 191.932 661.746 195.007 666.948C197.941 671.907 193.207 682.372 192.857 683.296Z" fill="#E5B593"/>
<path d="M192.856 683.295C187.427 682.167 183.516 674.979 183.972 666.581C184.456 657.679 189.665 650.79 195.604 651.196C195.604 651.196 190.928 662.064 194.003 667.266C196.937 672.225 193.206 682.371 192.856 683.295Z" fill="#543419"/>
<path d="M191.873 634.132C192.529 643.02 188.253 650.669 182.321 651.219C181.987 651.25 181.652 651.258 181.318 651.241C175.801 650.994 171.014 644.505 170.395 636.12C169.74 627.232 174.018 619.58 179.948 619.031C185.879 618.482 191.218 625.243 191.873 634.132Z" fill="#D39E7A"/>
<path d="M181.318 651.243C175.801 650.995 171.515 644.46 170.897 636.076C170.241 627.187 173.911 619.989 179.84 619.44C179.84 619.44 177.658 630.061 181.364 634.718C184.899 639.157 181.547 650.272 181.318 651.243Z" fill="#E5B593"/>
<path d="M181.318 651.242C175.801 650.994 171.014 644.505 170.395 636.121C169.74 627.232 174.018 619.58 179.948 619.031C179.948 619.031 176.705 630.537 180.411 635.194C183.946 639.632 181.547 650.271 181.318 651.242Z" fill="#543419"/>
<path d="M237.912 750.907H128.299L128.987 733.573H237.277L237.912 750.907Z" fill="#B5896B"/>
<path d="M246.251 561.74L245.329 579.499C245.329 579.499 201.515 569.41 184.525 569.41C167.534 569.41 118.758 577.784 118.758 577.784L117.89 564.593L246.251 561.74Z" fill="#D6681E"/>
<path d="M251.083 569.412H112.337L114.643 545.636H248.907L251.083 569.412Z" fill="#E2C1A3"/>
<path d="M235.181 545.636H133.2L136.632 536.828L181.701 532.486L228.336 528L235.181 545.636Z" fill="#CEA686"/>
<path d="M222.581 545.636H133.201L136.633 536.829L181.702 532.487C181.702 532.487 209.981 545.636 222.581 545.636Z" fill="#B5896B"/>
<path d="M184.523 569.411H112.336L114.642 545.634H167.016C169.525 551.176 175.797 563.374 184.523 569.411Z" fill="#CEA686"/>
<path d="M289.185 579.946L289.522 583.619C289.522 583.619 291.935 589.717 288.059 594.043C288.059 594.043 286.366 595.636 285.99 593.415C285.613 591.193 285.963 591.98 285.388 588.862C284.813 585.744 285.208 582.578 286.414 581.26L287.249 579.028L289.185 579.946Z" fill="#FFB27D"/>
<path d="M287.787 583.45C289.505 583.839 289.744 583.556 289.744 583.556C289.744 583.556 295.036 556.385 295.597 553.874C296.159 551.362 309.449 520.937 309.449 520.937L302.562 495.922C302.562 495.922 288.659 542 287.31 548.412C285.079 559.006 285.532 581.853 285.532 581.853C286.192 582.708 286.968 583.258 287.787 583.45Z" fill="#ED7D2B"/>
<path d="M285.3 583.952C285.3 583.952 284.983 586.913 284.617 587.788C284.25 588.664 283.896 589.436 284.22 589.86C284.544 590.283 285.889 587.982 285.94 587.51C285.991 587.038 285.3 583.952 285.3 583.952Z" fill="#FFB27D"/>
<path d="M272.211 631.161L296.525 637.11C298.05 637.476 299.597 636.79 300.829 635.203C302.06 633.616 302.876 631.256 303.098 628.64L304.599 610.548C304.812 607.93 304.413 605.273 303.488 603.158C302.564 601.043 301.19 599.643 299.666 599.262L275.352 593.313C273.827 592.948 272.279 593.634 271.048 595.221C269.816 596.808 269 599.167 268.779 601.784L267.277 619.875C267.064 622.494 267.464 625.151 268.388 627.265C269.313 629.38 270.687 630.781 272.211 631.161Z" fill="#233862"/>
<path d="M269.008 630.619L293.279 636.557C294.81 636.924 296.363 636.236 297.599 634.643C298.835 633.05 299.654 630.681 299.876 628.055L301.395 609.754C301.609 607.126 301.208 604.459 300.28 602.336C299.352 600.213 297.973 598.808 296.443 598.426L291.603 597.242L291.926 593.34C291.997 592.472 291.865 591.591 291.559 590.89C291.253 590.19 290.797 589.726 290.292 589.601L283.03 587.824C282.525 587.701 282.012 587.928 281.603 588.454C281.195 588.98 280.925 589.763 280.853 590.63L280.529 594.532L272.172 592.488C270.642 592.121 269.088 592.809 267.852 594.402C266.616 595.995 265.797 598.364 265.575 600.99L264.056 619.29C263.842 621.919 264.243 624.586 265.171 626.708C266.099 628.831 267.478 630.237 269.008 630.619ZM290.407 596.948L281.723 594.824L282.046 590.921C282.068 590.661 282.138 590.419 282.245 590.231C282.353 590.043 282.492 589.919 282.644 589.877C282.715 589.858 282.787 589.856 282.859 589.874L290.121 591.651C290.309 591.697 290.479 591.87 290.594 592.132C290.708 592.393 290.757 592.722 290.731 593.046L290.407 596.948Z" fill="#233862"/>
<path d="M302.756 494.824C302.756 494.824 308.189 502.538 313.48 496.952C313.48 496.952 314.167 491.485 313.788 487.731C313.742 487.269 313.698 486.821 313.656 486.395C313.24 482.163 313.073 479.768 313.073 479.768H313.067C312.788 479.663 303.715 476.343 303.774 476.835C305.126 488.209 302.756 494.824 302.756 494.824Z" fill="#FFB27D"/>
<path d="M304.909 479.291C305.997 481.628 309.327 485.828 313.655 486.392C313.239 482.16 313.071 479.766 313.071 479.766H313.065C312.82 479.73 304.586 478.603 304.909 479.291Z" fill="#ED975D"/>
<path d="M314.794 478.777C314.794 478.777 305.703 485.57 303.326 475.784C300.949 465.998 298.175 460.285 303.879 455.534C309.583 450.784 311.625 453.705 312.881 456.641C314.137 459.577 317.098 476.758 314.794 478.777Z" fill="#FFB27D"/>
<path d="M303.944 478.46C303.829 478.643 301.9 480.358 296.631 468.328C295.804 466.44 294.914 462.074 295.911 457.66C296.907 453.246 301.597 448.56 305.625 445.901C309.653 443.242 311.08 446.96 312.491 450.704C313.972 454.634 317.32 457.207 317.32 457.207C314.087 461.778 309.233 458.194 307.818 459.473C306.403 460.752 306.302 464.979 306.327 466.316C306.352 467.653 306.294 468.789 304.283 468.214C302.272 467.64 303.915 473.073 304.334 474.079C304.334 474.08 304.901 476.932 303.944 478.46Z" fill="#A9453D"/>
<path d="M290.123 736.526H284.279C283.054 736.526 281.693 734.42 281.352 730.564C281.012 726.709 278.493 724.602 277.948 721.446C277.403 718.289 280.195 713.846 280.195 713.846L280.662 712.816L281.148 711.743L285.777 713.612C285.777 713.612 285.891 715.504 285.963 717.915C286.023 719.752 286.029 721.594 285.981 723.432C285.845 727.642 286.668 732.173 288.846 732.992C291.023 733.811 290.123 736.526 290.123 736.526Z" fill="#2C3A64"/>
<path d="M330.808 736.526H315.317C315.204 736.495 315.094 736.44 314.988 736.363C313.954 735.473 314.278 728.674 314.402 726.574C314.426 726.185 314.443 725.957 314.443 725.957C314.443 725.957 319.89 718.476 320.64 724.205C320.664 724.383 320.691 724.558 320.72 724.731V724.734C321.666 730.093 325.892 732.527 328.334 733.206C330.201 733.727 330.684 735.594 330.808 736.526Z" fill="#2C3A64"/>
<path d="M327.686 583.145C327.686 583.145 326.859 600.866 325.886 622.169C324.564 651.106 322.975 686.65 322.818 693.384C322.546 705.077 321.456 723.78 321.456 723.78C321.456 723.78 318.87 728.224 313.694 726.351C313.694 726.351 309.081 699.652 307.764 671.401C307.744 670.938 307.723 670.473 307.703 670.005C306.477 641.247 304.571 580.688 304.571 580.688L327.686 583.145Z" fill="#2B478B"/>
<path d="M327.686 583.145C327.686 583.145 326.859 600.867 325.886 622.169L307.764 671.401C307.744 670.938 307.723 670.473 307.703 670.005C306.477 641.247 304.571 580.688 304.571 580.688L327.686 583.145Z" fill="#233862"/>
<path d="M323.907 585.252C323.907 585.252 308.996 649.431 299.192 679.593C289.387 709.756 286.323 718.172 286.323 718.172C286.323 718.172 280.706 714.313 280.195 711.684C280.195 711.684 283.945 653.456 290.511 639.261C294.221 631.241 298.579 607.172 298.783 598.754C298.987 590.336 300.111 573.678 300.111 573.678L323.907 585.252Z" fill="#2B478B"/>
<path d="M328.469 589.315C328.31 589.592 328.098 589.758 327.872 589.783C325.688 589.991 319.404 592.806 313.981 592.485C309.411 592.262 305.299 590.422 300.853 587.597C300.262 587.223 298.895 586.169 298.88 585.065C298.852 583.86 298.852 582.102 298.854 579.891C298.86 572.209 298.873 558.989 297.757 543.868C297.552 541.053 297.393 538.257 297.278 535.495C296.977 528.713 296.991 521.901 297.322 515.123C297.941 503.507 299.676 494.218 302.622 489.877C303.01 489.33 305.595 491.139 307.973 492.822C310.168 494.372 312.303 494.325 314.282 493.397L316.411 496.21C319.009 499.824 321.896 504.812 323.378 512.723C323.488 513.308 323.595 513.93 323.701 514.597C324.223 517.844 324.707 522.011 325.152 526.707C325.667 532.124 326.125 538.251 326.531 544.492C326.553 544.863 326.577 545.235 326.601 545.606C326.716 547.411 326.828 549.223 326.936 551.025C327.059 553.082 327.174 555.123 327.28 557.149C327.359 558.668 327.432 560.175 327.499 561.656L327.506 561.855C327.557 562.403 327.581 563.003 327.601 563.554C327.718 566.036 327.826 568.426 327.924 570.688C328.379 581.394 328.582 589.135 328.469 589.315Z" fill="#FF9843"/>
<path d="M327.922 570.692C314.149 562.558 308.327 526.963 308.327 526.963L326.934 551.03C327.057 553.087 327.172 555.128 327.278 557.154C327.357 558.673 327.43 560.18 327.496 561.661L327.504 561.86C327.555 562.408 327.579 563.008 327.599 563.559C327.717 566.042 327.825 568.431 327.922 570.692Z" fill="#ED7D2B"/>
<path d="M349.144 560.659C350.103 560.013 352.264 558.614 352.291 559.139C352.31 559.518 352.127 560.069 351.817 560.593C353.039 560.346 354.243 560.352 356.806 562.37C357.062 562.566 357.292 562.848 357.483 563.201C357.673 563.554 357.82 563.969 357.915 564.422C358.084 565.27 358.056 566.229 357.266 566.673C355.685 567.561 356.208 566.851 353.996 568.182C351.785 569.513 349.373 569.075 348.191 566.99L346.396 565.667L346.918 560.282C346.918 560.282 348.016 560.514 349.144 560.659Z" fill="#FFB27D"/>
<path d="M348.273 563.47C348.835 560.455 347.982 559.556 347.982 559.556C347.982 559.556 330.631 546.269 329.207 544.786C327.782 543.303 317.947 514.178 317.947 514.178C317.947 514.178 314.286 502.254 309.835 502.675C305.967 503.041 303.872 507.27 302.738 511.661C302.082 514.224 301.892 517.067 302.191 519.819C302.49 522.57 303.265 525.103 304.415 527.088C309.681 536.219 320.251 554.294 322.963 556.992C328.998 563.001 346.898 567.339 346.898 567.339C347.523 566.247 347.994 564.924 348.273 563.47Z" fill="#FF9843"/>
<path d="M52.5124 592.527L52.4089 595.781C52.4089 595.781 54.0913 601.747 49.6965 604.285C49.6965 604.285 47.8115 605.139 47.7011 603.118C47.5907 601.097 47.8464 601.879 47.6449 599.028C47.4434 596.178 48.2187 593.579 49.5831 592.814L50.6856 591.151L52.5124 592.527Z" fill="#FFB27D"/>
<path d="M50.6967 595.113C52.3694 595.968 52.6422 595.797 52.6422 595.797C52.6422 595.797 61.1926 574.079 62.0552 572.093C62.9178 570.108 79.8611 548.021 79.8611 548.021L75.9683 524.461C75.9683 524.461 56.5363 559.798 54.4177 564.892C50.9166 573.309 48.6309 593.058 48.6309 593.058C49.1887 593.992 49.9 594.7 50.6967 595.113Z" fill="#ED7D2B"/>
<path d="M48.1474 594.789C48.1474 594.789 47.4754 597.235 47.0038 597.876C46.5323 598.516 46.0858 599.072 46.3584 599.534C46.631 599.996 48.2533 598.428 48.3608 598.039C48.4683 597.649 48.1474 594.789 48.1474 594.789Z" fill="#FFB27D"/>
<path d="M32.659 634.09L56.926 643.444C58.4487 644.024 60.0654 643.693 61.4228 642.522C62.7803 641.352 63.7682 639.438 64.1707 637.198L66.9218 621.705C67.3154 619.462 67.0905 617.08 66.2961 615.08C65.5017 613.08 64.2023 611.625 62.6819 611.032L38.4149 601.678C36.8921 601.098 35.2755 601.429 33.918 602.6C32.5606 603.77 31.5726 605.684 31.17 607.924L28.419 623.417C28.0253 625.661 28.2503 628.042 29.0447 630.042C29.8392 632.042 31.1385 633.497 32.659 634.09Z" fill="#233862"/>
<path d="M29.4455 633.068L53.6695 642.405C55.198 642.988 56.8208 642.655 58.1833 641.48C59.5459 640.306 60.5375 638.384 60.9414 636.136L63.7249 620.463C64.1202 618.212 63.8945 615.821 63.0971 613.814C62.2997 611.806 60.9954 610.345 59.4692 609.75L54.6378 607.888L55.2312 604.547C55.3621 603.803 55.2879 603.014 55.0246 602.351C54.7614 601.689 54.3306 601.207 53.8266 601.011L46.5787 598.217C46.0742 598.024 45.5383 598.133 45.0884 598.521C44.6384 598.909 44.3113 599.543 44.1787 600.286L43.5853 603.628L35.245 600.413C33.7166 599.831 32.0938 600.163 30.7312 601.338C29.3686 602.513 28.3771 604.434 27.9731 606.683L25.1898 622.355C24.7946 624.607 25.0203 626.998 25.8177 629.005C26.6151 631.012 27.9194 632.473 29.4455 633.068ZM53.4455 607.429L44.7775 604.088L45.3711 600.746C45.4204 600.469 45.5425 600.232 45.7104 600.087C45.8784 599.942 46.0785 599.902 46.2668 599.974L53.5147 602.768C53.7029 602.841 53.8638 603.021 53.9621 603.268C54.0603 603.515 54.088 603.81 54.039 604.088L53.4455 607.429Z" fill="#233862"/>
<path d="M54.7313 733.904H38.9097C38.7942 733.876 38.6814 733.828 38.5738 733.76C37.5175 732.981 37.8481 727.023 37.9752 725.182C37.9995 724.841 38.0171 724.641 38.0171 724.641C38.0171 724.641 43.5804 718.086 44.3462 723.106C44.3705 723.262 44.3983 723.416 44.428 723.567V723.57C45.3938 728.266 49.7107 730.399 52.2049 730.994C54.1102 731.449 54.6044 733.085 54.7313 733.904Z" fill="#2C3A64"/>
<path d="M77.8327 600.253C77.8327 600.253 65.9721 656.826 57.4538 684.706C57.3525 685.019 57.2698 685.336 57.1677 685.651C48.6129 713.167 45.6029 724.203 45.6029 724.203C45.6029 724.203 40.6762 728.83 36.8335 724.725C36.8335 724.725 40.3898 664.663 46.4031 651.471C47.2087 649.737 47.9854 647.222 48.7297 644.284C51.1567 634.692 53.046 620.72 52.8968 615.084C52.7019 607.708 55.8934 593.004 55.8934 593.004L77.8327 600.253Z" fill="#2B478B"/>
<path d="M77.8316 600.254C77.8316 600.254 65.971 656.827 57.4527 684.707C54.8995 672.896 51.1852 655.722 48.7285 644.284C51.1555 634.692 53.0448 620.72 52.8956 615.084C52.7007 607.708 55.7986 593.811 55.7986 593.811L77.8316 600.254Z" fill="#273F76"/>
<path d="M89.5397 523.24C89.5397 523.24 89.0467 524.413 88.1745 526.62C87.9659 527.123 87.7575 527.681 87.5109 528.296C87.3971 528.631 87.2645 528.994 87.1316 529.33C86.0128 532.262 83.4153 535.335 83.4153 535.335C77.1392 534.106 75.7173 523.715 75.7173 523.715C75.7173 523.715 80.0781 521.453 83.2636 512.43H83.2825C83.5863 512.43 88.7433 521.787 89.4449 523.1L89.5397 523.24Z" fill="#FFB27D"/>
<path d="M89.5403 523.24C89.5403 523.24 89.0473 524.413 88.1751 526.62C85.1413 522.29 83.2264 517.737 83.2453 515.195C83.2459 515.181 83.2501 515.167 83.2571 515.157C83.264 515.146 83.2732 515.14 83.2831 515.139C83.7193 515.139 88.668 522.039 89.4454 523.1L89.5403 523.24Z" fill="#ED975D"/>
<path d="M89.1793 523.991C89.1793 523.991 80.0822 517.436 82.9413 509.154C85.8004 500.871 86.5501 494.448 92.4787 498.282C98.4073 502.117 98.4365 506.116 97.9386 509.223C97.4407 512.329 91.6191 525.483 89.1793 523.991Z" fill="#FFB27D"/>
<path d="M82.1395 511.383C81.9808 511.356 79.9266 510.119 81.8863 497.249C82.1938 495.228 83.5823 491.729 86.2407 490.363C88.8991 488.998 94.1277 491.707 97.9991 494.811C101.87 497.914 101.132 501.662 100.37 505.405C99.5705 509.334 100.623 514.632 100.623 514.632C96.4125 513.526 94.8215 505.929 93.305 505.034C91.7886 504.139 89.8075 506.427 89.2186 507.214C88.6298 508.002 88.0763 508.58 87.0053 505.951C85.9342 503.322 84.5614 508.29 84.3827 509.341C84.3815 509.341 83.4649 511.61 82.1395 511.383Z" fill="#A9453D"/>
<path d="M98.3575 733.904H82.5352C82.4197 733.876 82.3069 733.828 82.1993 733.76C81.143 732.981 81.4736 727.023 81.6007 725.182C81.625 724.841 81.6425 724.641 81.6425 724.641C81.6425 724.641 87.2057 718.086 87.9717 723.106C87.9961 723.262 88.0238 723.416 88.0533 723.567V723.57C89.0193 728.266 93.336 730.399 95.8304 730.994C97.7364 731.449 98.2314 733.085 98.3575 733.904Z" fill="#2C3A64"/>
<path d="M79.0022 601.721C79.0022 601.721 80.1127 617.215 81.47 635.834C83.3129 661.125 85.6108 692.183 86.1904 698.026C87.1985 708.173 88.152 724.585 88.152 724.585C88.152 724.585 86.0423 729.129 80.6415 728.95C80.6415 728.95 73.0869 707.23 68.67 683.262C68.5988 682.869 68.5272 682.473 68.4555 682.076C65.9628 668.173 57.2611 639.656 54.6562 618.754C52.6835 602.926 55.3451 591.551 55.3451 591.551L79.0022 601.721Z" fill="#2B478B"/>
<path d="M92.8413 548.242C92.8224 548.774 92.8033 549.36 92.7653 549.974C92.5947 552.88 92.1577 556.567 91.5898 560.673C90.9451 565.366 90.1108 570.617 89.1818 575.98C89.1026 576.287 89.0453 576.606 89.011 576.93C88.9921 577.014 88.9921 577.069 88.9731 577.154C88.7078 578.578 88.4234 580.088 88.1957 581.539C87.8355 583.299 87.5132 585.003 87.2099 586.736C87.153 587.015 87.0959 587.322 87.0392 587.601C86.9822 587.965 86.9064 588.328 86.8306 588.691C86.7169 589.334 86.5842 589.948 86.4703 590.535L86.4325 590.73C86.3615 591.212 86.2729 591.688 86.167 592.155C85.7498 594.222 85.3707 596.261 84.9533 598.188C84.0053 602.937 83.171 606.987 82.5643 609.725C82.0144 612.239 81.6542 613.692 81.5785 613.72C81.4733 613.797 81.3585 613.842 81.2411 613.852C81.1237 613.862 81.0061 613.836 80.8958 613.776C78.7721 612.798 72.1928 611.737 67.073 608.579C62.7499 605.954 59.2043 602.294 55.5456 597.574C55.0899 596.96 53.9908 595.395 54.1994 594.501C54.4269 593.496 54.807 592.015 55.2612 590.228C55.6024 588.942 55.9628 587.49 56.3798 585.842C57.7638 580.367 59.5275 572.965 61.0823 564.417C61.3287 563.02 61.5751 561.596 61.8215 560.143C62.2007 557.713 62.6559 555.283 63.1299 552.965C64.2712 547.256 65.7168 541.69 67.4531 536.317C70.4868 527.126 75.7579 521.93 79.4931 519.947C80.0051 519.696 80.4035 521.092 82.3373 523.719C84.1007 526.176 86.1484 527.266 88.2342 527.573L89.6752 530.98C91.4002 535.336 93.1066 540.951 92.8413 548.242Z" fill="#FF9843"/>
<path d="M86.8344 588.695C86.7133 589.319 86.5923 589.944 86.4712 590.539L86.4308 590.717C86.3622 591.199 86.2747 591.676 86.1685 592.143C85.7449 594.224 85.3616 596.245 84.9582 598.177C84.0099 602.932 83.1626 606.974 82.5574 609.709C66.0141 590.538 75.7182 543.162 75.7182 543.162L86.8344 588.695Z" fill="#ED7D2B"/>
<path d="M88.9723 577.152C88.707 578.577 88.4226 580.086 88.195 581.538C87.8348 583.298 87.5124 585.002 87.2091 586.734C87.1523 587.014 87.0952 587.321 87.0385 587.6L82.6206 584.89L85.332 561.733C85.332 561.733 86.9435 573.132 88.9723 577.152Z" fill="#ED7D2B"/>
<path d="M95.3641 608.182C96.3714 608.624 98.623 609.662 98.4527 610.05C98.3299 610.329 97.9802 610.54 97.5388 610.614C98.6127 611.576 99.579 612.697 100.901 616.466C101.035 616.838 101.117 617.247 101.141 617.667C101.165 618.087 101.131 618.51 101.041 618.91C100.867 619.653 100.493 620.289 99.6939 619.862C98.0964 619.009 98.7776 619.004 96.5109 617.873C94.2443 616.742 92.4639 614.203 92.2772 611.67L91.3179 609.092L93.7111 605.86C93.7111 605.86 94.5096 607.036 95.3641 608.182Z" fill="#FFB27D"/>
<path d="M93.6337 609.314C95.1904 607.754 94.8346 606.344 94.8346 606.344C94.8346 606.344 85.746 581.087 85.1435 578.743C84.5409 576.398 87.3038 547.177 87.3038 547.177C87.3038 547.177 88.7286 535.552 84.9938 531.717C81.7482 528.383 78.5127 529.36 75.991 531.34C74.5244 532.501 73.3293 534.287 72.5616 536.463C71.7939 538.64 71.4892 541.107 71.6873 543.543C72.576 554.727 74.4552 577.003 75.6473 581.38C78.3006 591.122 91.1105 610.711 91.1105 610.711C92.0133 610.537 92.8766 610.059 93.6337 609.314Z" fill="#FF9843"/>
<path d="M107.148 452.2H106.391V450.062C106.39 448.985 106.02 447.953 105.361 447.191C104.703 446.43 103.811 446.002 102.88 446H76.5866C75.6558 446.002 74.7633 446.43 74.1051 447.191C73.4469 447.953 73.0767 448.985 73.0756 450.062V452.201C73.0697 452.201 73.0641 452.2 73.0582 452.2H71.9395C71.6904 452.201 71.4518 452.316 71.2756 452.52C71.0995 452.723 71.0002 453 70.9995 453.288V456.538C71.0002 456.826 71.0995 457.102 71.2756 457.305C71.4518 457.509 71.6904 457.624 71.9395 457.625H73.0576C73.0635 457.625 73.0691 457.625 73.075 457.624V460.321C73.0761 461.398 73.4464 462.431 74.1048 463.192C74.7631 463.954 75.6557 464.382 76.5866 464.383H102.88C103.811 464.382 104.703 463.954 105.361 463.192C106.02 462.431 106.39 461.398 106.391 460.321V457.624H107.148C107.397 457.623 107.636 457.508 107.812 457.304C107.988 457.101 108.087 456.825 108.088 456.537V453.288C108.087 453 107.988 452.723 107.812 452.52C107.636 452.316 107.397 452.201 107.148 452.2ZM104.546 460.321C104.545 460.832 104.37 461.322 104.057 461.684C103.745 462.045 103.321 462.248 102.88 462.249H76.5866C76.1449 462.248 75.7214 462.045 75.409 461.684C75.0966 461.322 74.9209 460.832 74.9204 460.321V450.063C74.9208 449.552 75.0964 449.062 75.4088 448.7C75.7212 448.339 76.1448 448.135 76.5866 448.135H102.88C103.321 448.135 103.745 448.339 104.057 448.7C104.37 449.061 104.545 449.551 104.546 450.062V460.321Z" fill="#FF9843"/>
<path d="M78.9212 449.534H77.606C76.9291 449.534 76.3804 450.169 76.3804 450.952V459.41C76.3804 460.193 76.9291 460.828 77.606 460.828H78.9212C79.5981 460.828 80.1469 460.193 80.1469 459.41V450.952C80.1469 450.169 79.5981 449.534 78.9212 449.534Z" fill="#FF9843"/>
<path d="M318.148 412.071H317.391V409.978C317.39 408.923 317.019 407.912 316.361 407.167C315.703 406.421 314.81 406.002 313.88 406H287.586C286.655 406.002 285.763 406.421 285.104 407.167C284.446 407.912 284.076 408.923 284.075 409.978V412.072C284.069 412.072 284.063 412.071 284.057 412.071H282.939C282.69 412.072 282.452 412.185 282.276 412.384C282.099 412.584 282 412.854 282 413.136V416.318C282 416.6 282.099 416.871 282.276 417.07C282.452 417.269 282.69 417.382 282.939 417.383H284.057C284.063 417.383 284.069 417.383 284.075 417.382V420.023C284.076 421.078 284.446 422.089 285.104 422.834C285.762 423.58 286.655 423.999 287.586 424H313.88C314.81 423.999 315.703 423.58 316.361 422.834C317.019 422.089 317.389 421.078 317.391 420.023V417.382H318.148C318.397 417.381 318.636 417.268 318.812 417.069C318.988 416.87 319.087 416.599 319.088 416.317V413.136C319.087 412.854 318.988 412.584 318.812 412.384C318.636 412.185 318.397 412.072 318.148 412.071ZM315.546 420.023C315.545 420.524 315.37 421.003 315.057 421.357C314.745 421.711 314.321 421.91 313.88 421.911H287.586C287.144 421.91 286.721 421.711 286.408 421.357C286.096 421.003 285.92 420.524 285.92 420.023V409.978C285.92 409.478 286.096 408.998 286.408 408.644C286.721 408.29 287.144 408.091 287.586 408.091H313.88C314.321 408.091 314.745 408.29 315.057 408.644C315.37 408.998 315.545 409.478 315.546 409.978V420.023Z" fill="#FF9843"/>
<path d="M288.828 409.461H312.715C313.099 409.461 313.468 409.634 313.739 409.941C314.011 410.249 314.163 410.666 314.163 411.101V418.879C314.163 419.314 314.011 419.731 313.739 420.039C313.468 420.346 313.099 420.519 312.715 420.519H288.828C288.444 420.519 288.076 420.346 287.804 420.039C287.533 419.731 287.38 419.314 287.38 418.879V411.101C287.38 410.666 287.533 410.249 287.804 409.941C288.076 409.634 288.444 409.461 288.828 409.461Z" fill="#FF9843"/>
<path d="M356.367 750.903H345.26C344.665 749.948 345.672 747.781 346.724 747.636C347.296 747.62 347.866 747.748 348.42 748.015C348.572 744.178 349.445 726.93 352.735 727.624C356.433 728.4 352.735 735.22 351.689 739.258C350.914 742.249 350.097 746.537 349.724 748.561C350.024 748.685 350.335 748.805 350.653 748.915C351.143 746.07 352.967 736.501 355.287 737.059C358.01 737.711 356.916 741.549 354.985 743.825C353.569 745.501 351.83 747.88 351.003 749.031C351.721 749.267 352.448 749.377 353.176 749.36C355.078 749.272 356.007 750.332 356.367 750.903Z" fill="#82B378"/>
<path d="M19.1504 749.697C18.4369 747.579 16.2895 742.08 13.4291 742.807C10.3129 743.6 16.871 747.484 18.8788 749.713C18.5039 749.75 18.1283 749.667 17.7681 749.467C16.4258 748.563 14.1268 750.297 13.3918 750.906H26.1707C26.0249 749.977 25.6985 749.188 25.257 748.697C25.0473 748.455 24.6255 748.421 24.081 748.499C24.8408 746.806 25.3685 741.398 23.2532 742.788C21.708 743.805 21.7122 747.109 21.8638 749.064C21.5354 749.162 21.2017 749.26 20.8723 749.35C20.2361 743.221 17.9858 725.26 13.4247 724.781C8.80067 724.296 17.3457 743.409 20.1902 749.521C19.8263 749.606 19.4755 749.668 19.1504 749.697Z" fill="#82B378"/>
</svg>
