<svg width="375" height="754" viewBox="0 0 375 754" fill="none" xmlns="http://www.w3.org/2000/svg">
<g style="mix-blend-mode:luminosity">
<path d="M502.046 289.731C502.046 289.731 441.133 309.817 362.803 277.615C293.303 249.044 298.408 216.62 326.974 193.088C339.14 183.065 328.867 153.701 258.112 128.068C161.622 93.1125 221.57 -23.9891 370.339 -0.990841C442.333 10.1386 445.387 -31.8289 517.239 -9.6878L522.197 251.202C522.227 252.82 522.061 254.436 521.703 256.014L520.109 263.027C518.509 270.065 514.988 276.522 509.936 281.678L502.046 289.731Z" fill="#FCECDB"/>
</g>
<g style="mix-blend-mode:luminosity">
<path d="M-8.22012 742.884C-8.22012 742.884 -63.8764 688.114 -17.6325 628.816C23.3984 576.204 71.2362 579.8 106.334 601.151C121.282 610.244 164.381 602.272 201.063 548.736C251.088 475.729 424.491 520.008 392.874 632.332C377.574 686.689 439.439 688.664 407.916 743L-8.22012 742.884Z" fill="#FCECDB"/>
</g>
<path d="M156.295 592.581L156.753 596.354C156.753 596.354 160.039 602.619 154.762 607.064C154.762 607.064 152.456 608.701 151.943 606.418C151.431 604.136 151.907 604.944 151.124 601.741C150.341 598.537 150.88 595.284 152.522 593.93L153.658 591.637L156.295 592.581Z" fill="#FFB27D"/>
<path d="M154.392 596.18C156.732 596.579 157.057 596.288 157.057 596.288C157.057 596.288 164.263 568.372 165.027 565.792C165.792 563.211 183.89 531.951 183.89 531.951L174.512 506.25C174.512 506.25 155.579 553.592 153.742 560.18C150.705 571.064 151.321 594.539 151.321 594.539C152.22 595.417 153.277 595.982 154.392 596.18Z" fill="#ED7D2B"/>
<path d="M151.004 596.695C151.004 596.695 150.573 599.738 150.074 600.637C149.575 601.537 149.093 602.331 149.534 602.765C149.975 603.2 151.807 600.836 151.876 600.351C151.946 599.867 151.004 596.695 151.004 596.695Z" fill="#FFB27D"/>
<path d="M133.181 645.198L166.289 651.31C168.366 651.686 170.473 650.981 172.15 649.351C173.827 647.72 174.938 645.296 175.24 642.607L177.284 624.02C177.574 621.329 177.03 618.599 175.771 616.427C174.513 614.254 172.641 612.815 170.566 612.424L137.458 606.312C135.381 605.936 133.274 606.641 131.597 608.271C129.92 609.902 128.809 612.326 128.507 615.015L126.463 633.603C126.173 636.293 126.717 639.023 127.976 641.196C129.235 643.368 131.106 644.807 133.181 645.198Z" fill="#233862"/>
<path d="M128.82 644.641L161.869 650.743C163.954 651.12 166.069 650.413 167.752 648.776C169.436 647.139 170.551 644.705 170.853 642.007L172.922 623.204C173.213 620.504 172.667 617.763 171.403 615.583C170.14 613.402 168.261 611.957 166.178 611.565L159.587 610.348L160.028 606.339C160.125 605.448 159.945 604.543 159.528 603.823C159.11 603.103 158.49 602.626 157.802 602.498L147.914 600.672C147.226 600.546 146.527 600.779 145.971 601.319C145.415 601.86 145.048 602.664 144.949 603.555L144.508 607.565L133.129 605.464C131.044 605.087 128.929 605.794 127.246 607.431C125.563 609.068 124.448 611.501 124.145 614.199L122.077 633.002C121.785 635.703 122.331 638.443 123.595 640.624C124.858 642.805 126.737 644.249 128.82 644.641ZM157.959 610.047L146.133 607.864L146.574 603.855C146.604 603.587 146.699 603.338 146.845 603.145C146.992 602.952 147.182 602.825 147.388 602.782C147.485 602.762 147.583 602.76 147.68 602.779L157.569 604.604C157.826 604.652 158.057 604.83 158.213 605.098C158.369 605.367 158.436 605.705 158.4 606.037L157.959 610.047Z" fill="#233862"/>
<path d="M174.773 505.122C174.773 505.122 182.172 513.047 189.377 507.308C189.377 507.308 190.313 501.69 189.796 497.834C189.733 497.359 189.673 496.899 189.616 496.461C189.05 492.113 188.822 489.653 188.822 489.653H188.814C188.434 489.545 176.079 486.133 176.16 486.639C178.001 498.325 174.773 505.122 174.773 505.122Z" fill="#FFB27D"/>
<path d="M177.705 489.162C179.187 491.564 183.722 495.878 189.615 496.458C189.049 492.11 188.821 489.65 188.821 489.65H188.813C188.479 489.613 177.266 488.455 177.705 489.162Z" fill="#ED975D"/>
<path d="M191.167 488.634C191.167 488.634 178.788 495.613 175.551 485.559C172.314 475.504 168.537 469.635 176.304 464.753C184.07 459.872 186.851 462.874 188.561 465.89C190.272 468.907 194.303 486.559 191.167 488.634Z" fill="#FFB27D"/>
<path d="M176.391 488.307C176.235 488.496 173.608 490.257 166.433 477.898C165.308 475.958 164.096 471.472 165.452 466.937C166.809 462.402 173.196 457.587 178.68 454.855C184.165 452.123 186.109 455.943 188.029 459.79C190.046 463.828 194.605 466.471 194.605 466.471C190.204 471.167 183.593 467.485 181.667 468.799C179.74 470.114 179.602 474.457 179.636 475.83C179.671 477.204 179.592 478.371 176.853 477.781C174.115 477.19 176.352 482.772 176.922 483.806C176.922 483.807 177.694 486.737 176.391 488.307Z" fill="#A9453D"/>
<path d="M157.573 753.456H149.616C147.947 753.456 146.094 751.292 145.63 747.331C145.166 743.369 141.737 741.205 140.995 737.962C140.252 734.719 144.055 730.153 144.055 730.153L144.69 729.095L145.352 727.992L151.655 729.913C151.655 729.913 151.811 731.857 151.908 734.334C151.99 736.222 151.998 738.114 151.934 740.003C151.748 744.328 152.869 748.984 155.834 749.825C158.798 750.666 157.573 753.456 157.573 753.456Z" fill="#2C3A64"/>
<path d="M212.974 753.457H191.88C191.726 753.425 191.576 753.368 191.432 753.288C190.024 752.375 190.465 745.388 190.634 743.231C190.667 742.831 190.69 742.597 190.69 742.597C190.69 742.597 198.107 734.911 199.128 740.797C199.161 740.98 199.198 741.16 199.237 741.338V741.341C200.525 746.847 206.28 749.348 209.605 750.045C212.147 750.58 212.805 752.499 212.974 753.457Z" fill="#2C3A64"/>
<path d="M208.721 595.866C208.721 595.866 207.596 614.074 206.27 635.961C204.47 665.692 202.307 702.212 202.093 709.131C201.723 721.144 200.237 740.361 200.237 740.361C200.237 740.361 196.716 744.926 189.668 743.002C189.668 743.002 183.388 715.571 181.594 686.544C181.566 686.069 181.538 685.591 181.51 685.11C179.841 655.563 177.246 593.342 177.246 593.342L208.721 595.866Z" fill="#2B478B"/>
<path d="M208.721 595.866C208.721 595.866 207.596 614.074 206.27 635.961L181.594 686.544C181.566 686.069 181.538 685.591 181.51 685.11C179.841 655.563 177.246 593.342 177.246 593.342L208.721 595.866Z" fill="#233862"/>
<path d="M203.577 598.03C203.577 598.03 183.273 663.97 169.922 694.96C156.571 725.95 152.399 734.598 152.399 734.598C152.399 734.598 144.75 730.633 144.055 727.931C144.055 727.931 149.16 668.106 158.101 653.522C163.153 645.281 169.087 620.552 169.366 611.903C169.644 603.254 171.174 586.139 171.174 586.139L203.577 598.03Z" fill="#2B478B"/>
<path d="M209.788 602.204C209.572 602.488 209.282 602.66 208.975 602.686C206.001 602.899 197.444 605.791 190.06 605.462C183.836 605.232 178.238 603.342 172.184 600.439C171.378 600.055 169.517 598.972 169.497 597.838C169.459 596.6 169.459 594.793 169.462 592.521C169.47 584.629 169.487 571.046 167.968 555.51C167.688 552.618 167.471 549.745 167.315 546.907C166.905 539.94 166.925 532.94 167.375 525.977C168.218 514.042 170.581 504.498 174.592 500.038C175.121 499.476 178.641 501.334 181.879 503.063C184.867 504.656 187.774 504.608 190.47 503.654L193.369 506.544C196.907 510.257 200.838 515.383 202.856 523.51C203.006 524.111 203.151 524.751 203.295 525.436C204.006 528.772 204.665 533.054 205.271 537.879C205.972 543.444 206.596 549.739 207.149 556.151C207.179 556.533 207.212 556.914 207.244 557.296C207.402 559.151 207.553 561.012 207.701 562.863C207.868 564.977 208.024 567.074 208.17 569.156C208.277 570.716 208.377 572.265 208.467 573.787L208.477 573.991C208.546 574.553 208.579 575.171 208.606 575.736C208.766 578.286 208.913 580.743 209.045 583.066C209.665 594.066 209.942 602.019 209.788 602.204Z" fill="#FF9843"/>
<path d="M209.044 583.071C190.29 574.714 182.362 538.143 182.362 538.143L207.699 562.87C207.866 564.983 208.022 567.081 208.168 569.162C208.275 570.723 208.374 572.271 208.464 573.793L208.475 573.997C208.544 574.56 208.577 575.177 208.604 575.742C208.765 578.293 208.912 580.748 209.044 583.071Z" fill="#ED7D2B"/>
<path d="M237.943 572.762C239.248 572.098 242.191 570.661 242.228 571.201C242.254 571.589 242.005 572.156 241.582 572.694C243.247 572.44 244.886 572.447 248.375 574.52C248.724 574.721 249.038 575.011 249.297 575.374C249.557 575.736 249.757 576.163 249.886 576.628C250.117 577.499 250.078 578.485 249.002 578.941C246.849 579.853 247.562 579.124 244.55 580.491C241.538 581.859 238.254 581.409 236.645 579.267L234.201 577.907L234.911 572.375C234.911 572.375 236.407 572.613 237.943 572.762Z" fill="#FFB27D"/>
<path d="M236.756 575.65C237.521 572.553 236.361 571.629 236.361 571.629C236.361 571.629 212.734 557.977 210.794 556.453C208.854 554.93 195.462 525.006 195.462 525.006C195.462 525.006 190.477 512.754 184.416 513.187C179.149 513.562 176.296 517.908 174.752 522.419C173.859 525.053 173.6 527.973 174.007 530.801C174.414 533.628 175.47 536.231 177.036 538.269C184.205 547.651 198.6 566.223 202.292 568.995C210.51 575.168 234.884 579.625 234.884 579.625C235.736 578.503 236.376 577.143 236.756 575.65Z" fill="#FF9843"/>
<path d="M347.367 753.832H336.26C335.665 752.878 336.672 750.711 337.725 750.565C338.296 750.55 338.866 750.677 339.42 750.944C339.573 747.107 340.446 729.859 343.735 730.554C347.434 731.33 343.735 738.149 342.689 742.187C341.915 745.178 341.098 749.467 340.725 751.491C341.025 751.615 341.336 751.734 341.653 751.845C342.144 748.999 343.968 739.43 346.287 739.989C349.011 740.641 347.916 744.478 345.986 746.755C344.569 748.431 342.83 750.81 342.004 751.96C342.721 752.196 343.448 752.306 344.176 752.289C346.079 752.201 347.007 753.261 347.367 753.832Z" fill="#82B378"/>
<path d="M10.1509 752.627C9.43737 750.508 7.28999 745.01 4.4296 745.737C1.31337 746.529 7.87146 750.413 9.87926 752.642C9.50434 752.679 9.12878 752.596 8.76854 752.397C7.42628 751.492 5.12733 753.227 4.39233 753.835H17.1712C17.0254 752.907 16.6989 752.118 16.2575 751.627C16.0478 751.384 15.626 751.35 15.0815 751.428C15.8413 749.735 16.369 744.327 14.2537 745.718C12.7084 746.734 12.7127 750.039 12.8643 751.994C12.5359 752.091 12.2022 752.189 11.8728 752.279C11.2366 746.151 8.98629 728.189 4.42517 727.71C-0.198839 727.225 8.34619 746.338 11.1906 752.451C10.8268 752.536 10.476 752.598 10.1509 752.627Z" fill="#82B378"/>
</svg>
