<svg width="201" height="161" viewBox="0 0 201 161" fill="none" xmlns="http://www.w3.org/2000/svg">
<path d="M96.0708 102.05C103.999 102.05 111.721 99.8414 118.079 95.7467C121.952 97.3304 125.221 99.7996 127.53 102.865C129.926 106.046 131.19 109.737 131.192 113.493C131.192 113.493 131.192 113.494 131.192 113.494V129.05H60.95L60.95 113.494C60.95 113.494 60.95 113.493 60.95 113.493C60.9517 109.737 62.2157 106.047 64.6119 102.865C66.9211 99.7999 70.1897 97.3307 74.0626 95.747C80.4207 99.8416 88.1425 102.05 96.0708 102.05Z" stroke="#909092" stroke-opacity="0.66" stroke-width="1.9"/>
<path d="M116.765 69.4545C116.765 80.0145 107.565 88.6863 96.0728 88.6863C84.581 88.6863 75.3802 80.0145 75.3802 69.4545C75.3802 58.8945 84.581 50.2227 96.0728 50.2227C107.565 50.2227 116.765 58.8945 116.765 69.4545Z" stroke="#909092" stroke-opacity="0.66" stroke-width="1.9"/>
<path d="M130.555 57.6196V56.6696H129.605H120.925C119.03 56.6696 117.224 55.9668 115.902 54.7345C114.583 53.5043 113.856 51.8506 113.856 50.1415V26.4781C113.856 26.4781 113.856 26.4781 113.856 26.4781C113.856 24.769 114.583 23.1153 115.902 21.8851C117.224 20.6528 119.03 19.95 120.925 19.95H152.981C154.877 19.95 156.682 20.6528 158.004 21.8851C159.323 23.1153 160.051 24.769 160.051 26.4781V50.1415C160.051 50.9892 159.872 51.8304 159.522 52.6176C159.172 53.405 158.657 54.125 158.004 54.7345C157.35 55.3442 156.57 55.831 155.708 56.1642C154.845 56.4974 153.918 56.6696 152.981 56.6696H144.301H143.966L143.705 56.8797L130.555 67.4697V57.6196Z" stroke="#909092" stroke-opacity="0.66" stroke-width="1.9"/>
<circle cx="123" cy="40" r="4" fill="#B6B6B7"/>
<circle cx="35" cy="31" r="5" fill="#B6B6B7" fill-opacity="0.29"/>
<circle cx="182" cy="4" r="4" fill="#B6B6B7" fill-opacity="0.29"/>
<circle cx="179" cy="93" r="3" fill="#B6B6B7" fill-opacity="0.29"/>
<circle cx="199" cy="8" r="2" fill="#B6B6B7" fill-opacity="0.29"/>
<circle cx="160" cy="114" r="2" fill="#B6B6B7" fill-opacity="0.29"/>
<circle cx="2.5" cy="84.5" r="2.5" fill="#909092" fill-opacity="0.31"/>
<circle cx="43.5" cy="132.5" r="2.5" fill="#909092" fill-opacity="0.31"/>
<circle cx="137" cy="40" r="4" fill="#B6B6B7"/>
<circle cx="151" cy="40" r="4" fill="#B6B6B7"/>
<ellipse cx="97.5" cy="152.5" rx="43.5" ry="8.5" fill="#D9D9D9" fill-opacity="0.52"/>
</svg>
